#!OML:ASF X:\für Bonn\!DataBase\2005_08_10_Bjorn_Final\c3d\bjorn.ASF
:FULLY-SPECIFIED
:DEGREES
266
root 5.40935 18.8373 -0.00123076 642.505 94.1144 643.383
lowerback 0.0622708 -1.69553 5.61826
upperback 13.8124 -2.06102 0.400466
thorax 15.0004 -0.0109421 -2.84754
lowerneck 4.75223 8.1029 5.94114
upperneck -3.61145 10.8907 -8.39241
head -1.13922 5.57037 -3.97255
rclavicle -2.38542e-015 -2.38542e-014
rhumerus -27.1547 -25.8526 -77.5253
rradius 34.3431
rwrist 7.91351
rhand -7.08707 14.3919
rfingers 7.12502
rthumb 18.7871 -14.7209
lclavicle -2.38542e-015 -2.38542e-014
lhumerus -16.3567 -12.5878 83.4506
lradius 17.7536
lwrist -29.2586
lhand -6.00557 -6.20587
lfingers 7.12502
lthumb 19.827 22.8028
rfemur -24.4062 -3.85528 11.4565
rtibia 40.8306
rfoot -10.8389 13.7491
rtoes -9.91909
lfemur 4.61645 -2.23621 -13.7659
ltibia 49.8708
lfoot 4.7913 -0.554301
ltoes -26.8138
267
root 5.47591 18.8582 0.0393705 643.314 94.1061 644.292
lowerback 0.305344 -1.65733 5.87194
upperback 13.8614 -2.00514 0.447573
thorax 14.9104 0.045989 -2.92144
lowerneck 4.78145 8.07004 6.08624
upperneck -3.69165 10.8482 -8.6476
head -1.15155 5.55533 -4.09147
rclavicle 3.57812e-015 1.66979e-014
rhumerus -27.0464 -25.8562 -77.473
rradius 34.3951
rwrist 7.80129
rhand -7.04709 14.2374
rfingers 7.12502
rthumb 18.8255 -14.8716
lclavicle 3.57812e-015 1.66979e-014
lhumerus -17.0217 -12.9642 83.8849
lradius 17.9253
lwrist -28.983
lhand -6.09702 -6.25354
lfingers 7.12502
lthumb 19.7391 22.7642
rfemur -23.8615 -3.94502 11.593
rtibia 40.5023
rfoot -10.8666 13.854
rtoes -9.44242
lfemur 3.27335 -2.05558 -13.6504
ltibia 52.2895
lfoot 4.55312 -0.0314619
ltoes -26.7339
268
root 5.54003 18.8773 0.0773802 644.121 94.1004 645.186
lowerback 0.536216 -1.60091 6.16056
upperback 13.9001 -1.92573 0.481023
thorax 14.8181 0.118933 -3.02804
lowerneck 4.78078 8.01964 6.22654
upperneck -3.72943 10.7838 -8.84593
head -1.15018 5.52708 -4.18712
rclavicle -3.97569e-015 -3.18055e-015
rhumerus -27.0056 -25.8841 -77.4003
rradius 34.4746
rwrist 7.72891
rhand -7.00075 14.16
rfingers 7.12502
rthumb 18.8701 -14.9447
lclavicle -3.97569e-015 -3.18055e-015
lhumerus -17.6688 -13.324 84.3114
lradius 18.1017
lwrist -28.7504
lhand -6.22486 -6.33506
lfingers 7.12502
lthumb 19.6162 22.6953
rfemur -23.3491 -4.08814 11.7186
rtibia 40.1807
rfoot -10.9031 14.0109
rtoes -9.23834
lfemur 1.88535 -1.83599 -13.541
ltibia 54.7227
lfoot 4.18452 0.377603
ltoes -26.667
269
root 5.60225 18.8959 0.114554 644.758 94.0924 645.935
lowerback 0.780191 -1.53767 6.42936
upperback 13.9478 -1.83421 0.535852
thorax 14.7323 0.194347 -3.09852
lowerneck 4.84099 7.94851 6.31601
upperneck -3.83256 10.6883 -9.04151
head -1.18702 5.4856 -4.27979
rclavicle -3.97569e-015 -1.51076e-014
rhumerus -26.9368 -25.9249 -77.2788
rradius 34.5109
rwrist 7.76471
rhand -7.01024 14.0427
rfingers 7.12502
rthumb 18.861 -15.0628
lclavicle -3.97569e-015 -1.51076e-014
lhumerus -18.2478 -13.774 84.7893
lradius 18.249
lwrist -28.3693
lhand -6.33629 -6.38519
lfingers 7.12502
lthumb 19.5091 22.656
rfemur -22.8184 -4.2578 11.8401
rtibia 39.8686
rfoot -10.9422 14.184
rtoes -9.07619
lfemur 0.514895 -1.58526 -13.4387
ltibia 57.1359
lfoot 3.70188 0.708245
ltoes -26.6082
270
root 5.66151 18.9117 0.149454 645.27 94.0803 646.536
lowerback 1.03106 -1.46888 6.69715
upperback 13.9637 -1.73593 0.601315
thorax 14.6046 0.268426 -3.15679
lowerneck 4.931 7.8699 6.35274
upperneck -3.92217 10.5817 -9.20905
head -1.23059 5.43915 -4.35482
rclavicle 7.95139e-015 1.59028e-015
rhumerus -26.941 -25.9194 -77.0975
rradius 34.5758
rwrist 7.84768
rhand -7.01451 13.9917
rfingers 7.12502
rthumb 18.8569 -15.1143
lclavicle 7.95139e-015 1.59028e-015
lhumerus -18.8456 -14.2104 85.2968
lradius 18.3865
lwrist -27.9622
lhand -6.44358 -6.46087
lfingers 7.12502
lthumb 19.4059 22.5908
rfemur -22.3415 -4.42738 11.9625
rtibia 39.5795
rfoot -10.9883 14.3489
rtoes -9.12384
lfemur -0.894094 -1.3114 -13.3371
ltibia 59.5373
lfoot 3.18555 0.900413
ltoes -26.1992
271
root 5.71835 18.9279 0.183843 646.068 94.0763 647.422
lowerback 1.28205 -1.40195 6.94535
upperback 13.9676 -1.63895 0.679447
thorax 14.4634 0.337158 -3.1912
lowerneck 5.04219 7.78132 6.39225
upperneck -3.98623 10.4641 -9.3657
head -1.27142 5.38707 -4.42714
rclavicle -1.11319e-014 -3.33958e-014
rhumerus -26.9249 -25.8962 -76.8773
rradius 34.5653
rwrist 7.99364
rhand -7.10394 13.9498
rfingers 7.12502
rthumb 18.7709 -15.1645
lclavicle -1.11319e-014 -3.33958e-014
lhumerus -19.4011 -14.682 85.8357
lradius 18.4798
lwrist -27.4284
lhand -6.58393 -6.57576
lfingers 7.12502
lthumb 19.2709 22.4894
rfemur -21.8839 -4.63226 12.0731
rtibia 39.304
rfoot -11.0017 14.5155
rtoes -8.90333
lfemur -2.3239 -1.01247 -13.2281
ltibia 61.9051
lfoot 2.68076 0.871869
ltoes -25.6873
272
root 5.77314 18.9405 0.216073 646.49 94.0867 647.956
lowerback 1.54791 -1.32338 7.19649
upperback 13.9955 -1.52046 0.747633
thorax 14.3467 0.419976 -3.23624
lowerneck 5.11372 7.67933 6.41513
upperneck -4.05572 10.3252 -9.54092
head -1.30901 5.3248 -4.50093
rclavicle -6.36111e-015 -3.18055e-015
rhumerus -26.886 -25.9087 -76.6454
rradius 34.5601
rwrist 8.16526
rhand -7.24517 13.9138
rfingers 7.12502
rthumb 18.635 -15.2136
lclavicle -6.36111e-015 -3.18055e-015
lhumerus -19.8677 -15.0964 86.351
lradius 18.5449
lwrist -27.0432
lhand -6.65642 -6.70934
lfingers 7.12502
lthumb 19.2012 22.3628
rfemur -21.4138 -4.84842 12.1488
rtibia 39.041
rfoot -11.0348 14.7275
rtoes -8.86035
lfemur -3.71587 -0.695707 -13.1651
ltibia 64.2341
lfoot 2.19905 0.744692
ltoes -24.7944
273
root 5.82635 18.9529 0.24713 647.155 94.0776 648.723
lowerback 1.81191 -1.23808 7.46468
upperback 14.0033 -1.39556 0.839754
thorax 14.2089 0.503957 -3.26475
lowerneck 5.23809 7.56411 6.34646
upperneck -4.15628 10.1647 -9.64424
head -1.3774 5.25244 -4.53731
rclavicle 1.82882e-014 4.29375e-014
rhumerus -26.8591 -25.9388 -76.3487
rradius 34.5099
rwrist 8.31343
rhand -7.36339 13.9003
rfingers 7.12502
rthumb 18.5213 -15.238
lclavicle 1.82882e-014 4.29375e-014
lhumerus -20.3585 -15.446 86.9001
lradius 18.6274
lwrist -26.6294
lhand -6.72929 -6.85506
lfingers 7.12502
lthumb 19.1312 22.224
rfemur -20.9486 -5.10726 12.2467
rtibia 38.7616
rfoot -11.0298 14.9639
rtoes -8.66295
lfemur -5.1449 -0.343984 -13.0681
ltibia 66.5219
lfoot 1.75883 0.483479
ltoes -24.1756
